<svg width="576" height="48" viewBox="0 0 576 48" fill="none" xmlns="http://www.w3.org/2000/svg">
<path d="M36.6746 48H11.3663C5.06985 48 0 42.8893 0 36.6337V11.3663C0 5.06985 5.11073 0 11.3663 0H36.6337C42.9302 0 48 5.11073 48 11.3663V36.6337C48.0409 42.8893 42.9302 48 36.6746 48Z" fill="#FBFBFB"/>
<path d="M24.8177 15.6593V20.2385C24.7359 20.2794 24.6542 20.2794 24.5724 20.3203C20.8927 21.7922 18.276 25.3492 18.276 29.5605C18.276 33.7717 20.8927 37.3697 24.5724 38.8007H17.54C13.5332 38.8007 10.2624 35.2027 10.2624 30.8279V8.74957L24.8177 15.6593Z" fill="#250D53"/>
<path d="M36.7973 29.6014C36.7973 33.8535 33.7308 37.3697 29.6831 38.0238C29.2334 38.1056 28.7428 38.1465 28.2521 38.1465C25.8807 38.1465 23.7547 37.2061 22.201 35.6525C20.6474 34.0988 19.707 31.9727 19.707 29.6014C19.707 26.0034 21.9557 22.8961 25.1039 21.6286C26.0852 21.2606 27.1482 21.0153 28.2521 21.0153C28.3339 21.0153 28.3748 21.0153 28.4157 21.0153C28.8245 21.0153 29.2743 21.0562 29.6831 21.138C30.7053 21.3015 31.6457 21.6695 32.5043 22.1601C33.3629 22.6508 34.1397 23.3049 34.753 24.0409C36.0204 25.5537 36.7973 27.4753 36.7973 29.6014Z" fill="#250D53"/>
<path d="M36.6746 35.3254V38.8825H33.1175V38.1874C33.5673 37.9421 34.1397 37.615 34.7121 37.1652C34.7939 37.1244 34.8348 37.0426 34.9165 37.0017C35.0801 36.8382 35.2845 36.6746 35.448 36.4702L35.5298 36.3884C35.7751 36.1022 36.0204 35.7342 36.184 35.3663H36.6746V35.3254Z" fill="#250D53"/>
<path d="M63.6951 36.756H59.5122L59.5002 11L63.6891 15.1971L63.7011 36.7499L63.6951 36.756Z" fill="#FBFBFB"/>
<path d="M80.4028 36.7682H76.4713V34.9198C75.3941 36.3046 74.0596 37 72.4679 37C70.8761 37 69.5416 36.5303 68.4645 35.5969C67.3873 34.6574 66.8428 33.4069 66.8428 31.8451C66.8428 30.2834 67.3993 29.1122 68.5124 28.3313C69.6254 27.5504 71.1514 27.1661 73.0842 27.16H76.2079V27.0746C76.2079 25.4458 75.3582 24.6283 73.6707 24.6283C72.9466 24.6283 72.1806 24.7748 71.3668 25.0676C70.5589 25.3604 69.8767 25.7264 69.3202 26.1657L67.4472 23.4083C69.416 21.9503 71.666 21.2182 74.1973 21.2121C76.0165 21.2121 77.5065 21.6757 78.6614 22.603C79.8164 23.5303 80.3909 25.0005 80.3909 27.0075V36.7621L80.4028 36.7682ZM76.19 30.9423V30.2041H73.5689C71.8934 30.2041 71.0616 30.7349 71.0616 31.7963C71.0616 32.3454 71.2591 32.7663 71.66 33.0591C72.0609 33.3519 72.6294 33.4984 73.3775 33.4984C74.1255 33.4984 74.7777 33.2665 75.3462 32.8029C75.9147 32.3393 76.196 31.717 76.196 30.9423H76.19Z" fill="#FBFBFB"/>
<path d="M87.488 36.7621L82.3776 21.4683H86.7041L89.6363 30.7044L92.5626 21.4622H96.6079L99.5401 30.6983L102.466 21.4561H106.817L101.718 36.756H97.3678L94.6032 28.4289L91.8206 36.7621H87.488Z" fill="#FBFBFB"/>
<path d="M117.804 21.1938C119.629 21.1938 121.215 21.9198 122.573 23.3656C123.931 24.8175 124.614 26.6781 124.614 28.9535C124.614 31.229 123.919 33.1323 122.525 34.6696C121.131 36.2069 119.545 36.9756 117.768 36.9756C115.99 36.9756 114.518 36.2313 113.345 34.7306V36.7499H109.163L109.151 15.1971L113.334 11V23.1581C114.488 21.8466 115.973 21.1938 117.798 21.1938H117.804ZM113.286 29.1183C113.286 30.3627 113.627 31.3754 114.303 32.1624C114.979 32.9493 115.805 33.3397 116.774 33.3397C117.744 33.3397 118.588 32.9432 119.312 32.1563C120.036 31.3693 120.401 30.3566 120.401 29.1244C120.401 27.8921 120.048 26.8611 119.342 26.0253C118.635 25.1896 117.786 24.7748 116.804 24.7748C115.817 24.7748 114.985 25.1896 114.309 26.0131C113.633 26.8367 113.292 27.8738 113.292 29.1122L113.286 29.1183Z" fill="#FBFBFB"/>
<path d="M135.63 25.1957C134.386 25.1957 133.452 25.6471 132.842 26.55C132.231 27.4528 131.92 28.6424 131.92 30.1187V36.7438H127.737V21.4439H131.914V23.4632C132.453 22.8348 133.129 22.3041 133.937 21.871C134.745 21.4317 135.571 21.206 136.408 21.1877L136.438 25.1957H135.63Z" fill="#FBFBFB"/>
<path d="M153.99 29.0817C153.99 31.3022 153.236 33.1689 151.734 34.6879C150.226 36.2069 148.335 36.9634 146.061 36.9634C143.781 36.9634 141.89 36.2069 140.382 34.694C138.874 33.1811 138.12 31.3083 138.12 29.0939C138.12 26.8733 138.874 25.0005 140.376 23.4754C141.884 21.9503 143.775 21.1816 146.049 21.1816C148.323 21.1816 150.22 21.9442 151.728 23.4693C153.236 24.9944 153.99 26.8672 153.99 29.0817ZM142.327 29.0878C142.327 30.3383 142.674 31.3571 143.374 32.1441C144.074 32.931 144.966 33.3214 146.055 33.3214C147.144 33.3214 148.036 32.9249 148.73 32.138C149.424 31.351 149.777 30.3322 149.777 29.0817C149.777 27.8311 149.43 26.8062 148.73 26.0131C148.03 25.2201 147.138 24.8175 146.049 24.8175C144.96 24.8175 144.068 25.214 143.374 26.0131C142.68 26.8123 142.327 27.8311 142.327 29.0878Z" fill="#FBFBFB"/>
<path d="M161.272 36.7255H157.09L157.078 15.6241H161.26V26.4585L165.916 21.3951H171.188L165.473 27.5932L171.422 36.7194H166.455L162.631 30.863L161.266 32.3149V36.7255H161.272Z" fill="#FBFBFB"/>
<path d="M181.577 25.1713C180.332 25.1713 179.398 25.6227 178.788 26.5256C178.178 27.4284 177.866 28.618 177.866 30.0943V36.7194H173.684V21.4195H177.86V23.4388C178.399 22.8104 179.075 22.2797 179.883 21.8466C180.691 21.4073 181.517 21.1816 182.355 21.1633L182.384 25.1713H181.577Z" fill="#FBFBFB"/>
<path d="M184.305 36.2191C183.833 35.7372 183.593 35.1455 183.593 34.4439C183.593 33.7424 183.827 33.1506 184.305 32.6687C184.778 32.1868 185.359 31.9428 186.047 31.9428C186.735 31.9428 187.315 32.1807 187.788 32.6687C188.261 33.1506 188.5 33.7424 188.5 34.4439C188.5 35.1455 188.261 35.7372 187.788 36.2191C187.315 36.7011 186.735 36.9451 186.047 36.9451C185.359 36.9451 184.778 36.7011 184.305 36.2191Z" fill="#FBFBFB"/>
<path d="M122.615 36.2619V36.7743H125.421V32.7602H125.05C124.721 34.5842 123.973 35.6213 122.621 36.2619H122.615Z" fill="#FBFBFB"/>
</svg>
