<svg width="16" height="16" viewBox="0 0 16 16" fill="none" xmlns="http://www.w3.org/2000/svg">
<path d="M4.79961 0H3.73294C2.55474 0 1.59961 0.89543 1.59961 2V14C1.59961 15.1046 2.55474 16 3.73294 16H4.79961C5.97782 16 6.93294 15.1046 6.93294 14V2C6.93294 0.89543 5.97782 0 4.79961 0Z" fill="#2F2F38"/>
<path d="M12.2663 0H11.1996C10.0214 0 9.06628 0.89543 9.06628 2V14C9.06628 15.1046 10.0214 16 11.1996 16H12.2663C13.4445 16 14.3996 15.1046 14.3996 14V2C14.3996 0.89543 13.4445 0 12.2663 0Z" fill="#2F2F38"/>
</svg>
